<svg xmlns="http://www.w3.org/2000/svg" fill-rule="evenodd" clip-rule="evenodd" image-rendering="optimizeQuality" shape-rendering="geometricPrecision" text-rendering="geometricPrecision" viewBox="0 0 1706.66 1706.66"><path fill="#0cf" d="M1157.43 753.39l-93.1 0c-11.04 0-20-8.96-20-20l.01-141.43c0-11.04 8.97-20 20-20l93.09 0c11.04 0 20 8.96 20 20l0 141.43c0 11.04-8.98 20-20 20zm-73.09-40l53.08 0 0-101.43-53.08 0 0 101.43zM994.83 1099.72c-11.04 0-20-8.97-20-20l0-565.91c0-32.61-26.53-59.14-59.14-59.14l-653.96 0c-32.61 0-59.14 26.53-59.14 59.14l0 565.91c0 26.33-40 26.32-40 0l0-565.91c0-54.67 44.47-99.14 99.14-99.14l653.96 0c54.69 0 99.16 44.47 99.16 99.14l-.01 565.91c0 11.04-8.97 20-20.01 20z"/><path fill="#0cf" d="M734.33 827.85c-5.23 0-10.46-2.04-14.39-6.1l-131.25-135.89-131.22 135.89c-18.29 18.93-47.06-8.85-28.76-27.79l145.61-150.78c7.53-7.81 21.23-7.81 28.76 0l145.63 150.78c12.31 12.73 3.1 33.89-14.38 33.89zM986.59 1258.81l-795.76 0c-35.98 0-65.26-29.28-65.26-65.26l0-113.83c0-11.04 8.96-20 20-20l886.27 0c11.04 0 20 8.97 20 20l0 113.83c.02 35.99-29.27 65.26-65.25 65.26zm-821.02-159.09l0 93.83c0 13.93 11.33 25.25 25.26 25.25l795.74 0c13.93 0 25.25-11.32 25.25-25.25l0-93.83-846.25 0z"/><path fill="#0cf" d="M892.66 1406.93l-71.67 0c-48.45 0-87.87-39.43-87.87-87.89l0-80.24c0-26.33 40-26.32 40 0l0 80.24c0 26.4 21.47 47.87 47.87 47.87l71.67 0c26.39 0 47.86-21.47 47.86-47.87l0-80.24c0-26.33 40-26.32 40 0l0 80.24c.01 48.46-39.42 87.89-87.86 87.89zM356.43 1406.93l-71.67 0c-48.46 0-87.87-39.43-87.87-87.89l0-80.24c0-26.33 40-26.32 40 0l0 80.24c0 26.4 21.47 47.87 47.87 47.87l71.67 0c26.4 0 47.87-21.47 47.87-47.87l0-80.24c0-26.33 40-26.32 40 0l0 80.24c0 48.46-39.42 87.89-87.87 87.89zM779.63 454.67c-26.78 0-20-36.17-20-66.79 0-26.56-21.61-48.15-48.17-48.15l-245.51 0c-56.46 0-48.17 61.98-48.17 94.94 0 26.33-40 26.33-40 0l0-46.79c0-48.61 39.56-88.15 88.17-88.15l245.53 0c48.61 0 88.17 39.54 88.17 88.15 0 30.62 6.78 66.79-20.02 66.79zM851.54 1023.76c-105.27 0-105.27-160 0-160 105.27 0 105.26 160 0 160zm0-119.97c-52.63 0-52.62 79.97 0 79.97 52.61 0 52.61-79.97 0-79.97zM325.89 1023.76c-105.27 0-105.27-160 0-160 105.27 0 105.27 160 0 160zm0-119.97c-52.64 0-52.62 79.97 0 79.97 52.62 0 52.63-79.97 0-79.97zM698.9 922.53l-220.39 0c-26.33 0-26.33-40 0-40l220.39 0c26.32 0 26.33 40 0 40zM698.9 1005.04l-220.39 0c-26.33 0-26.33-40 0-40l220.39 0c26.32 0 26.33 40 0 40zM588.72 827.85c-11.04 0-20-8.96-20-20l0-250.62c0-26.33 40-26.33 40 0l0 250.62c0 11.04-8.96 20-20 20zM1110.87 611.96c-27.8 0-20-40.68-20-78.15l-96.03 0c-26.33 0-26.32-40 0-40l116.03 0c11.04 0 20 8.96 20 20l0 78.15c0 11.05-8.96 20-20 20zM66.56 611.96c-11.04 0-20-8.96-20-20l0-78.15c0-11.04 8.96-20 20-20l116.02 0c26.33 0 26.33 40 0 40l-96.04 0c0 37.53 7.8 78.15-19.98 78.15z"/><path fill="#0cf" d="M113.12 753.39l-93.11 0c-11.04 0-20-8.96-20-20l0-141.43c0-11.04 8.96-20 20-20l93.1 0c11.04 0 20 8.96 20 20l0 141.43c.02 11.04-8.94 20-19.98 20zm-73.11-40l53.1 0 0-101.43-53.1 0 0 101.43zM786.8 1258.81c-11.04 0-20-8.97-20-20l0-159.09c0-26.33 40-26.32 40 0l0 159.09c0 11.04-8.96 20-20 20zm-396.17 0c-11.04 0-20-8.97-20-20l0-159.09c0-26.33 40-26.32 40 0l0 159.09c0 11.04-8.96 20-20 20zM484.35 1199.2c-26.11 0-20-33.59-20-59.87 0-26.33 40-26.32 40 0 0 26.34 6.11 59.87-20 59.87zM588.71 1199.2c-26.11 0-20-33.59-20-59.87 0-26.33 40-26.32 40 0 0 26.34 6.1 59.87-20 59.87zM693.08 1199.2c-26.1 0-20-33.59-20-59.87 0-26.33 40-26.32 40 0 0 26.32 6.11 59.87-20 59.87zM1547.13 1292.02c-11.04 0-20-8.97-20-20l0-240.22-105.68 0 0 240.22c0 26.33-40 26.32-40 0l0-260.24c0-11.04 8.97-20 20-20l145.69 0c11.04 0 20 8.97 20 20l0 260.22c0 11.04-8.98 20.02-20.02 20.02z"/><path fill="#0cf" d="M1474.28 1031.8c-11.04 0-20-8.97-20-20l0-184.86c0-26.32 40-26.32 40 0l0 184.86c0 11.03-8.96 20-20 20zM1435.2 726.68c-11.04 0-20-8.96-20-20l0-184.25c0-26.33 40-26.33 40 0l0 184.25c0 11.06-8.97 20-20 20z"/><path fill="#0cf" d="M1502.5 641.93c-102.47,0 -85.22,18.54 -85.22,-119.5 0,-28.39 43.7,-20 85.22,-20 91.81,0 91.78,139.5 0,139.5zm-45.22 -40c30.16,0 74.97,7.53 74.97,-29.75 0,-37.27 -44.81,-29.75 -74.97,-29.75l0 59.5z"/><path fill="#0cf" d="M1474.28 846.94c-128.13 0-232.37-104.25-232.37-232.37 0-128.12 104.25-232.37 232.37-232.37 128.12 0 232.37 104.25 232.37 232.37 0 128.12-104.24 232.37-232.37 232.37zm0-424.76c-106.08 0-192.37 86.3-192.37 192.39 0 106.08 86.29 192.39 192.37 192.39 106.08 0 192.37-86.3 192.37-192.39 0-106.08-86.29-192.39-192.37-192.39zM1630.2 1406.93l-311.82 0c-11.04 0-20-8.97-20-20l0-114.92c0-11.04 8.97-20 20-20l311.82 0c11.04 0 20 8.97 20 20l0 114.92c0 11.04-8.98 20-20 20zm-291.82-40.01l271.8 0 0-74.92-271.8 0 0 74.91z"/><path fill="#96eaff" d="M1474.28 806.95c106.08,0 192.37,-86.3 192.37,-192.39 0,-106.08 -86.29,-192.39 -192.37,-192.39 -106.08,0 -192.37,86.3 -192.37,192.39 0,106.08 86.29,192.39 192.37,192.39zm28.22 -165.02c-19.98,0 -35.41,0.7 -47.31,0.81l0 63.93c0,26.33 -40,26.32 -40,0l0 -184.25c0,-29.89 50.12,-20 87.31,-20 91.81,0 91.78,139.5 0,139.5z"/><path fill="#96eaff" d="M1457.28 601.93c30.16,0 74.97,7.53 74.97,-29.75 0,-37.27 -44.81,-29.75 -74.97,-29.75l0 59.5z"/><polygon fill="#96eaff" points="1527.13 1031.8 1421.45 1031.8 1421.45 1252.02 1527.13 1252.02"/><polygon fill="#96eaff" points="1546.35 1292 1338.38 1292.01 1338.38 1366.92 1610.18 1366.92 1610.18 1292"/><path fill="#96eaff" d="M892.66 1366.92c26.39 0 47.86-21.47 47.86-47.87l0-60.24-167.4 0 0 60.24c0 26.4 21.47 47.87 47.87 47.87l71.67 0zM806.8 1218.8l179.78 0c13.93 0 25.25-11.32 25.25-25.25l0-93.83-205.03 0 0 119.08zM370.63 1218.8l0-119.08-205.05 0 0 93.83c0 13.93 11.33 25.25 25.26 25.25l179.79 0zM390.63 1258.81l-153.73 0 0 60.24c0 26.4 21.47 47.87 47.87 47.87l71.67 0c26.4 0 47.87-21.47 47.87-47.87l0-60.24-13.68 0zM410.63 1099.72l0 119.08 356.17 0 0-119.08-356.17 0zm73.72 99.48c-26.11 0-20-33.59-20-59.87 0-26.33 40-26.32 40 0 0 26.34 6.11 59.87-20 59.87zm104.36 0c-26.11 0-20-33.59-20-59.87 0-26.33 40-26.32 40 0 0 26.34 6.1 59.87-20 59.87zm104.37 0c-26.1 0-20-33.59-20-59.87 0-26.33 40-26.32 40 0 0 26.32 6.11 59.87-20 59.87zM417.41 414.67l341.5 0c.16-8.73.72-17.99.72-26.79 0-26.56-21.61-48.15-48.17-48.15l-245.51 0c-46.34 0-49.06 41.75-48.54 74.94zM974.83 1059.72l0-545.91c0-32.61-26.53-59.14-59.14-59.14l-653.96 0c-32.61 0-59.14 26.53-59.14 59.14l0 545.91 772.24 0zm-240.5-231.87l-455.94 0c-11.04 0-20-8.96-20-20l0-265.74c0-11.04 8.96-20 20-20l620.65 0c11.04 0 20 8.96 20 20l0 265.72c0 11.06-8.96 20.02-20 20.02l-164.71 0zm-408.43 35.91c105.27 0 105.27 160 0 160-105.27 0-105.27-160 0-160zm152.62 18.77l220.39 0c26.32 0 26.33 40 0 40l-220.39 0c-26.33 0-26.33-40 0-40zm373.02 141.23c-105.27 0-105.27-160 0-160 105.27 0 105.26 160 0 160zm-373.02-58.72l220.39 0c26.32 0 26.33 40 0 40l-220.39 0c-26.33 0-26.33-40 0-40z"/><path fill="#0cf" d="M899.04 827.85l-620.65 0c-11.04,0 -20,-8.96 -20,-20l0 -265.74c0,-11.04 8.96,-20 20,-20l620.65 0c11.04,0 20,8.96 20,20l0 265.72c0,11.06 -8.96,20.02 -20,20.02zm-600.65 -40l580.65 0 0 -225.74 -580.65 0 0 225.74z"/></svg>