<svg xmlns="http://www.w3.org/2000/svg" enable-background="new 0 0 64 64" viewBox="0 0 64 64"><path fill="#57585b" d="M59.9902344,29.7192383l-2.8984375-9.0253906C56.4765625,18.7836914,54.7080078,17.5,52.6904297,17.5
		H7.2900391C5.4755859,17.5,4,18.9624023,4,20.7597656v18.8803711c0,1.5493164,1.2695313,2.8100586,2.8300781,2.8100586h3.8787231
		C11.319397,44.7757568,13.4489136,46.5,15.9824219,46.5c2.5343018,0,4.6639404-1.7242432,5.2745972-4.0498047h19.8502197
		C41.7178345,44.7757568,43.8473511,46.5,46.3808594,46.5s4.6630249-1.7242432,5.2736206-4.0498047h6.2752075
		C59.0712891,42.4501953,60,41.5258789,60,40.3901367V30L59.9902344,29.7192383z M6,20.7597656
		C6,20.0649414,6.5791016,19.5,7.2900391,19.5h45.4003906c1.1464844,0,2.1494141,0.7260742,2.4951172,1.800293l0.0397949,0.125H6
		V20.7597656z M43.1542969,26.3652344c-0.5527344,0-1,0.4477539-1,1v2.7416992h-0.9169922V23.425293h6.8095703v6.6816406h-3.8925781
		v-2.7416992C44.1542969,26.8129883,43.7070313,26.3652344,43.1542969,26.3652344z M34.4599609,26.3652344
		c-0.5527344,0-1,0.4477539-1,1v2.7416992h-1.0322266V23.425293h6.8095703v6.6816406h-3.7773438v-2.7416992
		C35.4599609,26.8129883,35.0126953,26.3652344,34.4599609,26.3652344z M25.8222656,26.3652344c-0.5527344,0-1,0.4477539-1,1
		v2.7416992h-1.2041016V23.425293h6.8095703v6.6816406h-3.6054688v-2.7416992
		C26.8222656,26.8129883,26.375,26.3652344,25.8222656,26.3652344z M16.8984375,26.3652344c-0.5527344,0-1,0.4477539-1,1v2.7416992
		h-1.0888672V23.425293h6.8085938v6.6816406h-3.7197266v-2.7416992
		C17.8984375,26.8129883,17.4511719,26.3652344,16.8984375,26.3652344z M6,23.425293h6.8095703v6.6816406H8.9746094v-2.7416992
		c0-0.5522461-0.4472656-1-1-1s-1,0.4477539-1,1v2.7416992H6V23.425293z M15.9824219,44.5
		c-1.9052734,0-3.4550781-1.5297852-3.4550781-3.409668s1.5498047-3.409668,3.4550781-3.409668
		s3.4560547,1.5297852,3.4560547,3.409668S17.8876953,44.5,15.9824219,44.5z M40.9675293,40.4501953H21.3967285
		c-0.3208618-2.6818237-2.6243286-4.7695313-5.4143066-4.7695313c-2.7890625,0-5.0924683,2.0877075-5.4133301,4.7695313H6.8300781
		C6.3720703,40.4501953,6,40.0869141,6,39.6401367v-7.5332031h41.9296875v3.7990723
		c-0.4915161-0.1447144-1.0106201-0.2253418-1.5488281-0.2253418
		C43.5917969,35.6806641,41.2883911,37.7683716,40.9675293,40.4501953z M46.3808594,44.5
		c-1.9052734,0-3.4550781-1.5297852-3.4550781-3.409668s1.5498047-3.409668,3.4550781-3.409668
		s3.4550781,1.5297852,3.4550781,3.409668S48.2861328,44.5,46.3808594,44.5z M57.9296875,40.4501953h-6.135498
		c-0.164978-1.3787842-0.8540039-2.5983276-1.864502-3.4597778v-4.2307739l1.9775391,1.038208
		c0.4423828,0.2324219,0.9414063,0.3549805,1.4423828,0.3549805h4.6229858L57.9296875,40.4501953z M57.9862671,32.152832h-4.6366577
		c-0.0983887,0-0.1954956-0.0159302-0.2900391-0.0415649v-3.118103c0-0.5522461-0.4472656-1-1-1s-1,0.4477539-1,1v2.1011353
		l-1.0126953-0.5316162V23.425293h5.8154907L58,30.1367188L57.9862671,32.152832z"/><path fill="#57585b" d="M15.9828491 39.5185547c-.8770752 0-1.5881348.7037354-1.5881348 1.5718384 0 .8681641.7110596 1.5718994 1.5881348 1.5718994.8771362 0 1.5881348-.7037354 1.5881348-1.5718994C17.5709839 40.22229 16.8599854 39.5185547 15.9828491 39.5185547zM46.4072266 39.5185547c-.8770752 0-1.5881348.7037354-1.5881348 1.5718384 0 .8681641.7110596 1.5718994 1.5881348 1.5718994.8771362 0 1.5881348-.7037354 1.5881348-1.5718994C47.9953613 40.22229 47.2843628 39.5185547 46.4072266 39.5185547zM52.5166016 34.7495117h-.9150391c-.5527344 0-1 .4477539-1 1s.4472656 1 1 1h.9150391c.5527344 0 1-.4477539 1-1S53.0693359 34.7495117 52.5166016 34.7495117z"/></svg>