<svg xmlns="http://www.w3.org/2000/svg" viewBox="0 0 24 24"><g fill="none" stroke="#303C42" stroke-linecap="round" stroke-linejoin="round" stroke-miterlimit="10"><circle cx="12" cy="12" r="11.5"/><path d="M17 16V7.481c0-.215-.12-.414-.306-.481-1.136-.408-3.355-.5-4.694-.5-1.341 0-3.562.092-4.699.502-.182.066-.301.256-.301.467v8.534c0 .276.204.497.455.497h9.09c.251 0 .455-.224.455-.5z"/><path d="M7 11s2.727.5 5 .5 5-.5 5-.5M8.5 16.5v1h1v-1M14.5 16.5v1h1v-1"/><circle cx="9" cy="14" r=".5"/><circle cx="15" cy="14" r=".5"/><path d="M17 9.5h1v1M7 9.5H6v1"/></g></svg>